<svg xmlns="http://www.w3.org/2000/svg" viewBox="0 0 32 32" width="32" height="32">
  <rect width="32" height="32" rx="7" fill="#2e37a4"/>
  <g transform="translate(7, 7) scale(0.75)" stroke="white" stroke-width="2" stroke-linecap="round" stroke-linejoin="round" fill="none">
    <path d="M4.8 2.3A.3.3 0 1 0 5 2H4a2 2 0 0 0-2 2v5a6 6 0 0 0 6 6v0a6 6 0 0 0 6-6V4a2 2 0 0 0-2-2h-1a.2.2 0 1 0 .3.3"/>
    <path d="M8 15a6 6 0 0 0 6 6h0a6 6 0 0 0 6-6v-3"/>
    <circle cx="20" cy="10" r="2"/>
  </g>
</svg>
